<svg xmlns="http://www.w3.org/2000/svg" viewBox="0 0 388.97 362.16"><defs><style>.cls-1,.cls-3{fill:#fff;}.cls-2,.cls-4{fill:#1d1d1b;}.cls-2{stroke:#fff;stroke-width:2px;}.cls-2,.cls-3{stroke-miterlimit:10;}.cls-3{stroke:#1d1d1b;}</style></defs><g id="Слой_2" data-name="Слой 2"><g id="Слой_1-2" data-name="Слой 1"><path class="cls-1" d="M331.69,28.17C351.8,47,359.58,71.86,360.06,73.45c8.58,28.51-2.1,42.59,11,67.39,8.62,16.29,20.76,24.29,17.28,30.69-4.46,8.21-28.31,2.73-30.07,9.1-1.32,4.76,11.51,9.88,10.26,15.37-1.54,6.72-23.72,7.57-23.6,8.41.06.41,5.28-.75,10.49,1.78,2,1,5.9,3.42,5.56,5.69-.4,2.76-6.87,4.37-11.4,4.61-5.34.28-8-1.35-8.89-.15-1.52,2,6,6.7,7.05,13.72,1.36,8.68-7.09,20.2-17.38,23.72-10.09,3.45-14.95-3.19-32.34-.54-7.16,1.09-10.74,1.64-13,3.79-12.73,12,20.84,49.24,9.4,67.36-7.32,11.6-26.93,5.58-89,4.13-56-1.32-69,2.89-74.31-6C118.42,301,186,262.9,178.24,209.65a54.1,54.1,0,0,0-2.92-10.88,61.83,61.83,0,0,0-11.95-19s-2.08-2.42-19.77-27.53c-15.38-21.83-10.92-59.1-.23-84,15.87-37,47.92-52.58,56.75-56.67C242.86-8.17,298.72-2.68,331.69,28.17Z"/><path class="cls-2" d="M321.56,31.4c19.8,18.12,27.75,42.38,28.24,43.93,8.78,27.82-1.36,41.79,11.76,65.89,8.63,15.83,20.53,23.49,17.26,29.81-4.19,8.12-27.42,3.14-29,9.41-1.2,4.69,11.32,9.51,10.2,14.91-1.38,6.61-22.88,7.81-22.75,8.63.06.4,5.1-.82,10.19,1.57,2,.93,5.78,3.26,5.5,5.49-.35,2.71-6.6,4.4-11,4.7-5.18.37-7.76-1.19-8.62,0-1.44,2,5.87,6.48,7.05,13.34,1.47,8.48-6.55,19.92-16.47,23.53-9.73,3.55-14.55-2.88-31.38,0-6.92,1.19-10.38,1.78-12.55,3.92-12.15,12,21,48,10.2,65.9-6.92,11.49-26,5.91-86.29,5.49-54.3-.38-66.92,4-72.17-4.71-12.61-20.84,52.27-59.3,43.93-111.39a52.82,52.82,0,0,0-3-10.62,60.19,60.19,0,0,0-11.89-18.4s-2.06-2.35-19.61-26.67C125.87,135,129.6,98.36,139.57,73.76c14.79-36.49,45.63-52.33,54.13-56.48C234.83-2.79,289.09,1.69,321.56,31.4Z"/><path class="cls-3" d="M156.23,73.58c12.65-37.41,52.73-61.74,92-61.33,35.8.38,68.83,21.29,84.33,50.6,3.55,6.71,19.43,36.75,6.9,55.19-12.11,17.82-37.48,5.28-93.52,16.86-46.67,9.65-59.23,24.58-75.13,15.34C150.47,138.43,147.2,100.25,156.23,73.58Z"/><path class="cls-1" d="M46.39,127c-15.89,14.29-22.27,33.42-22.66,34.64-7,21.94,1.09,33-9.44,52C7.37,226.06-2.18,232.1.44,237.08c3.37,6.41,22,2.48,23.29,7.43,1,3.69-9.09,7.49-8.18,11.75,1.11,5.21,18.35,6.16,18.25,6.8,0,.32-4.1-.64-8.18,1.24-1.61.74-4.64,2.57-4.41,4.33.28,2.14,5.3,3.47,8.81,3.71,4.16.29,6.23-.94,6.93,0,1.15,1.57-4.72,5.11-5.67,10.52-1.17,6.69,5.26,15.71,13.22,18.56,7.8,2.79,11.67-2.28,25.17,0,5.56.93,8.34,1.4,10.07,3.09,9.75,9.48-16.85,37.81-8.18,52,5.55,9.07,20.89,4.67,69.23,4.33,43.57-.3,53.69,3.13,57.9-3.71,10.12-16.43-41.93-46.77-35.24-87.84a41.72,41.72,0,0,1,2.41-8.38,47.57,47.57,0,0,1,9.54-14.51s1.65-1.85,15.74-21c12.25-16.69,9.25-45.56,1.26-65-11.87-28.77-36.61-41.26-43.43-44.53C116,100,72.44,103.54,46.39,127Z"/><path class="cls-2" d="M54.83,130.38c-15.32,13.68-21.62,32.18-22,33.36-7,21.21.66,32-9.6,50.32-6.74,12-15.92,17.79-13.48,22.66,3.14,6.25,21,2.65,22.13,7.46.87,3.6-8.76,7.17-7.94,11.32,1,5.07,17.43,6.18,17.33,6.81,0,.3-3.9-.68-7.82,1.1-1.54.7-4.45,2.45-4.25,4.16.24,2.08,5,3.42,8.36,3.7,4,.32,6-.85,6.6.08,1.09,1.53-4.55,4.9-5.52,10.14C37.44,288,43.47,296.79,51,299.65s11.17-2.08,24,.28c5.29,1,7.93,1.46,9.57,3.11,9.19,9.31-16.51,36.51-8.4,50.34,5.19,8.86,19.87,4.76,66,5,41.56.2,51.18,3.64,55.27-2.95,9.85-15.83-39.45-45.86-32.61-85.64a41,41,0,0,1,2.4-8.1,46.41,46.41,0,0,1,9.27-14s1.6-1.77,15.25-20.23c11.88-16.05,9.35-44.11,1.95-63-11-28.06-34.45-40.46-40.91-43.71C121.51,105,80,107.93,54.83,130.38Z"/><path class="cls-1" d="M113.48,136.77c1-1.27,3.17.38,8.45,0,4.31-.28,6-1.58,7.1-.52,1.62,1.55-1.17,5.07.52,7.11s7.12,1.68,8.4-.61-2.24-5.28-.86-7.4c.67-1,1.84-.81,6.71-1.46,6-.81,7.23-1.57,8.4-.61s.52,2.42,1.16,7.06c.78,5.68,2.47,7.8,1.3,9-1.42,1.45-4.5-1.08-6.46.47s-1.73,7,.61,8.39,5.5-1.88,7.1-.51c1.27,1.08-.41,3.33,0,8.45.25,3.48,1.3,4.65.42,5.81s-2.41.58-6.42,1.12c-5,.67-6.67,2.16-7.7,1.2-1.62-1.51,1.8-5.78.08-7.8-1.54-1.81-6.61-1.08-7.71,1.21-1.21,2.54,3.07,5.75,1.86,7.66-.92,1.44-3.62,0-9,.65-5.1.61-7.09,2.41-8.35,1.26s.07-2.89.09-7.8c0-3.41,0-7.21-1.9-8.31-2.57-1.47-6.09,3.34-9,1.95-2.6-1.27-3.43-7.07-1.3-9,2.34-2.12,7.11,1.44,9-.66,1-1.12.52-3.35-.56-7.75C114,139.76,112.52,137.94,113.48,136.77Z"/><path class="cls-1" d="M47.63,175.73c1-1.47,3-.43,7.74-2,3.87-1.28,5.1-2.87,6.37-2.16,1.85,1,.14,4.91,2.17,6.37s6.91-.16,7.54-2.56-3.31-4.3-2.56-6.57c.37-1.11,1.5-1.18,5.8-2.94,5.33-2.18,6.23-3.16,7.53-2.56s1.06,2.09,2.75,6.18c2.08,5,4.13,6.54,3.34,7.92-1,1.67-4.37.09-5.8,2s.1,6.83,2.57,7.54,4.58-3,6.38-2.17c1.41.68.41,3.14,2,7.73,1.07,3.13,2.3,3.95,1.77,5.22s-2.06,1.11-5.6,2.55c-4.44,1.82-5.58,3.58-6.76,3-1.84-1,.27-5.72-1.78-7.15-1.85-1.29-6.31.58-6.76,2.94-.51,2.62,4.17,4.53,3.52,6.56-.49,1.54-3.31.88-8.12,2.77-4.65,1.83-5.37,3.54-7.34,3.14-1.76-.36-2.76-2.11-5.64-9.52-4.81-12.39-3.63-11.7-6.16-17.21C48.29,179.74,46.5,177.37,47.63,175.73Z"/><path class="cls-1" d="M96.72,187c.77-.94,2.33.27,6.19,0,3.16-.2,4.4-1.15,5.21-.37,1.18,1.13-.86,3.71.38,5.21s5.21,1.23,6.15-.45S113,187.53,114,186c.5-.76,1.36-.59,4.92-1.07,4.43-.59,5.3-1.15,6.16-.44s.38,1.77.85,5.17c.57,4.16,1.81,5.72,1,6.6-1,1.06-3.3-.79-4.73.34s-1.27,5.14.44,6.15,4-1.38,5.21-.37c.93.79-.31,2.44,0,6.19.19,2.55,1,3.4.31,4.26s-1.76.42-4.7.81c-3.69.49-4.89,1.59-5.65.89-1.18-1.11,1.32-4.24.06-5.72s-4.84-.79-5.64.89c-.89,1.86,2.24,4.21,1.35,5.61-.67,1.06-2.65,0-6.62.48-3.75.45-5.2,1.76-6.12.92s0-2.12.06-5.72-2.18-5.07-1.39-6.09c1-1.36,4.67,1.07,6.26-.45,1.41-1.34.72-5.29-1.16-6.21-2-1-4.58,2-6,1-1-.7.4-2.39-.41-5.68C97.07,189.17,96,187.84,96.72,187Z"/><path class="cls-1" d="M142,209.93c-.95-.69.27-2.14,0-5.69-.21-2.91-1.18-4-.39-4.79,1.15-1.11,3.76.73,5.28-.43s1.24-4.82-.46-5.66-3.93,1.57-5.5.67c-.78-.44-.61-1.23-1.1-4.51-.61-4.06-1.18-4.85-.46-5.66s1.8-.38,5.24-.86c4.22-.6,5.79-1.77,6.68-1,1.09.94-.79,3.05.36,4.35s5.21,1.08,6.24-.51-1.41-3.69-.39-4.79c.79-.86,2.47.24,6.27-.07,2.59-.22,3.45-.94,4.32-.36s.43,1.62.83,4.31c.51,3.39,1.62,4.48.91,5.19-1.12,1.11-4.3-1.15-5.79,0s-.8,4.48.91,5.19c1.89.78,4.27-2.14,5.68-1.35,1.08.6,0,2.44.5,6.1.46,3.43,1.8,4.75,1,5.61s-2.15,0-5.8,0c-2.53,0-5.35.08-6.16,1.38-1.09,1.75,2.49,4.07,1.46,6-.94,1.77-5.25,2.4-6.69,1s1.06-4.81-.5-6.09c-.83-.69-2.49-.31-5.75.47C144.25,209.58,142.9,210.57,142,209.93Z"/><path class="cls-1" d="M87.54,125.38c1.06.44.66,1.85,2.26,4.62,1.89,3.27,1.93,3.69,2.21,3.75,1.66.35,2.67-3.68,5-3.77s5.11,3.73,4.3,5.5c-.93,2-6.3.88-6.66,2.43-.12.48,1.16,1.11,2.61,3.27,2.08,3.09,2.82,3.53,2.61,4.43s-1.19.94-3.55,2.55c-3.74,2.54-4.51,2.55-4.57,3.14-.15,1.61,3.7,2.19,3.87,4.3.15,1.88-2.65,4.25-4.41,3.77-2-.56-1.61-4.65-3.68-5.12-1.06-.24-2.13.79-4.63,2.27-1.84,1.08-2.19,2-3.07,1.8s-1-1.16-2.34-3.21c-1.73-2.57-3-3.06-2.75-3.88.39-1.3,3.65-.58,4.29-2.07.57-1.33-1.2-3.91-2.75-3.88-1.72,0-2.31,3.23-3.68,3.08-1-.11-1-2-2.81-4.77s-2.94-2.93-3-4.22,1-2,5.28-4.81c7.2-4.66,6.91-3.83,10.07-6.15C85.09,126.32,86.36,124.88,87.54,125.38Z"/><path class="cls-1" d="M94.46,167.38c.48-.57,1.44.17,3.84,0,2-.12,2.72-.72,3.22-.23.74.7-.53,2.3.24,3.23s3.23.76,3.81-.28-1-2.4-.39-3.36c.31-.48.84-.37,3-.67,2.75-.37,3.28-.71,3.82-.27s.23,1.1.52,3.2c.36,2.58,1.13,3.55.59,4.09s-2-.49-2.93.21-.79,3.19.28,3.82,2.49-.86,3.22-.24c.58.49-.19,1.52,0,3.84.11,1.58.59,2.11.19,2.64s-1.09.26-2.92.51c-2.28.3-3,1-3.5.55-.73-.69.82-2.63,0-3.55s-3-.49-3.5.55,1.39,2.61.84,3.48c-.41.65-1.64,0-4.11.3-2.31.27-3.21,1.09-3.79.57s0-1.32,0-3.55c0-1.54,0-3.27-.86-3.77-1.17-.67-2.77,1.52-4.07.89s-1.56-3.21-.59-4.09,3.23.65,4.11-.3c.47-.51.24-1.52-.26-3.52C94.68,168.74,94,167.91,94.46,167.38Z"/><path class="cls-1" d="M126.52,179.84c.26-.32.8.1,2.12,0,1.09-.07,1.51-.4,1.79-.13s-.29,1.28.13,1.79a1.56,1.56,0,0,0,2.12-.15c.32-.58-.56-1.33-.22-1.87.17-.26.47-.2,1.69-.36,1.52-.21,1.82-.4,2.12-.16s.13.61.29,1.78c.2,1.43.62,2,.33,2.27s-1.14-.27-1.63.11a1.55,1.55,0,0,0,.15,2.12c.59.35,1.39-.48,1.79-.13s-.1.84,0,2.13c.07.87.33,1.17.11,1.46s-.61.15-1.62.28c-1.26.17-1.68.55-1.94.31s.46-1.46,0-2a1.44,1.44,0,0,0-1.94.3c-.3.64.77,1.45.47,1.93s-.91,0-2.28.17-1.78.6-2.1.31,0-.72,0-2-.75-1.74-.48-2.09,1.61.37,2.16-.16a1.6,1.6,0,0,0-.4-2.13c-.71-.34-1.58.7-2.06.35s.14-.82-.14-2C126.64,180.59,126.27,180.14,126.52,179.84Z"/><path class="cls-1" d="M62.35,153c.45.19.28.79,1,2,.81,1.4.82,1.58.94,1.61.72.15,1.15-1.58,2.17-1.62s2.19,1.6,1.85,2.36-2.71.38-2.87,1c0,.21.5.48,1.13,1.41.89,1.33,1.2,1.51,1.11,1.9s-.5.41-1.52,1.09c-1.6,1.1-1.93,1.1-2,1.36-.06.68,1.59.93,1.66,1.84a1.83,1.83,0,0,1-1.89,1.62c-.88-.24-.69-2-1.58-2.2-.46-.1-.92.34-2,1-.79.47-.94.85-1.32.78s-.41-.5-1-1.38c-.75-1.1-1.29-1.31-1.18-1.67.16-.55,1.57-.25,1.84-.88a1.48,1.48,0,0,0-1.18-1.67c-.74,0-1,1.39-1.58,1.32s-.42-.85-1.21-2-1.26-1.26-1.26-1.82.41-.87,2.26-2.06c3.09-2,3-1.65,4.33-2.64S61.84,152.74,62.35,153Z"/><path class="cls-1" d="M163.05,176.07c-.76-.55.22-1.71,0-4.55-.17-2.32-.94-3.21-.31-3.82.91-.89,3,.58,4.21-.35s1-3.85-.37-4.52-3.13,1.26-4.39.54c-.62-.36-.48-1-.88-3.6-.48-3.25-.94-3.88-.37-4.52s1.44-.31,4.19-.7c3.37-.48,4.63-1.41,5.34-.79.87.76-.63,2.44.29,3.48s4.16.87,5-.41-1.13-2.94-.31-3.82c.63-.69,2,.19,5-.06,2.07-.18,2.76-.75,3.45-.29s.35,1.29.67,3.45c.4,2.71,1.29,3.57.72,4.14-.89.89-3.43-.92-4.63,0s-.63,3.57.73,4.14c1.51.63,3.41-1.71,4.54-1.07.86.48,0,2,.4,4.86.37,2.75,1.44,3.8.76,4.49s-1.72,0-4.63,0c-2,0-4.28.06-4.93,1.11-.87,1.39,2,3.24,1.17,4.8s-4.19,1.92-5.34.79.84-3.84-.4-4.87c-.67-.55-2-.25-4.6.38C164.82,175.79,163.74,176.58,163.05,176.07Z"/><path class="cls-1" d="M74.86,207.77c.55-.67,1.67.2,4.46,0,2.27-.15,3.16-.83,3.75-.27.85.81-.62,2.67.27,3.75s3.76.89,4.44-.32-1.18-2.79-.46-3.91c.36-.55,1-.43,3.55-.77,3.19-.43,3.82-.83,4.43-.32s.28,1.28.62,3.73c.41,3,1.3,4.12.68,4.75s-2.37-.57-3.41.25-.91,3.7.32,4.43,2.91-1,3.76-.27c.66.57-.22,1.76,0,4.46.13,1.84.68,2.46.22,3.07s-1.27.31-3.39.59c-2.66.35-3.52,1.14-4.07.64-.85-.8.95-3.06,0-4.12s-3.5-.57-4.07.64,1.61,3,1,4c-.48.76-1.91,0-4.77.35-2.7.32-3.75,1.27-4.41.66s0-1.53,0-4.12-1.57-3.66-1-4.39c.76-1,3.37.77,4.51-.32s.52-3.82-.84-4.48-3.3,1.47-4.31.73c-.7-.5.29-1.72-.3-4.09C75.11,209.35,74.35,208.39,74.86,207.77Z"/><path class="cls-1" d="M51.82,201c-.27.5-1.11.09-2.89.57-1.45.4-1.93,1-2.39.67-.66-.41.05-1.81-.67-2.39a2.15,2.15,0,0,0-2.82.8c-.29.87,1.13,1.65.81,2.47-.16.4-.58.4-2.2,1-2,.7-2.35,1-2.82.8s-.35-.79-.89-2.33c-.66-1.89-1.39-2.49-1.07-3s1.61.06,2.17-.61a2.15,2.15,0,0,0-.79-2.82c-.9-.31-1.75,1-2.39.67s-.09-1.17-.58-2.89c-.33-1.17-.77-1.5-.55-1.95s.78-.37,2.11-.83c1.68-.58,2.13-1.21,2.55-1,.66.4-.21,2.1.52,2.67a2,2,0,0,0,2.54-1c.24-1-1.44-1.75-1.16-2.49.21-.56,1.23-.25,3-.85s2.25-1.32,2.77-1,.17,1,.51,2.67c.24,1.17.5,2.47,1.23,2.71,1,.32,1.85-1.57,2.92-1.29a2.31,2.31,0,0,1,1.07,3c-.65.89-2.52,0-3,.86-.28.45.05,1.18.73,2.61C51.45,200,52.07,200.51,51.82,201Z"/><path class="cls-1" d="M53.82,209.39c.77.33.48,1.35,1.65,3.36,1.36,2.36,1.39,2.67,1.59,2.71,1.21.26,1.94-2.66,3.66-2.73s3.71,2.7,3.12,4c-.68,1.47-4.57.64-4.84,1.76-.08.35.85.81,1.9,2.37,1.51,2.24,2,2.56,1.89,3.21s-.86.68-2.57,1.85c-2.71,1.84-3.27,1.85-3.31,2.28-.11,1.16,2.68,1.58,2.8,3.11.11,1.36-1.92,3.08-3.2,2.73-1.47-.4-1.16-3.37-2.67-3.71-.76-.17-1.54.57-3.35,1.65-1.33.78-1.59,1.42-2.22,1.3s-.71-.83-1.7-2.32c-1.26-1.86-2.17-2.22-2-2.82.29-.93,2.65-.42,3.11-1.49s-.86-2.84-2-2.82S44,226.16,43,226.06c-.75-.08-.71-1.44-2-3.46s-2.14-2.13-2.14-3.07.7-1.46,3.83-3.48c5.21-3.38,5-2.78,7.3-4.46C52.05,210.07,53,209,53.82,209.39Z"/><path class="cls-1" d="M118.05,216.32c.94-1.14,2.83.33,7.53,0,3.85-.25,5.35-1.41,6.34-.46,1.44,1.38-1,4.52.46,6.34s6.35,1.5,7.49-.54-2-4.72-.77-6.61c.61-.93,1.65-.72,6-1.3,5.39-.72,6.45-1.4,7.49-.54s.47,2.16,1,6.3c.7,5.06,2.21,7,1.16,8-1.27,1.3-4-1-5.76.42s-1.55,6.25.54,7.49,4.9-1.68,6.34-.46c1.12,1-.37,3,0,7.54.23,3.1,1.16,4.14.38,5.18s-2.15.52-5.72,1c-4.49.59-6,1.93-6.88,1.07-1.44-1.34,1.61-5.16.08-7-1.38-1.61-5.9-1-6.87,1.08-1.09,2.27,2.73,5.13,1.65,6.83-.82,1.29-3.23,0-8.07.59-4.55.54-6.32,2.14-7.45,1.11s.07-2.57.08-6.95-2.65-6.18-1.7-7.41c1.29-1.66,5.69,1.3,7.63-.55,1.71-1.64.87-6.44-1.42-7.56-2.49-1.21-5.57,2.47-7.29,1.24-1.18-.86.49-2.91-.5-6.92C118.47,219,117.19,217.36,118.05,216.32Z"/><path class="cls-1" d="M177.94,189.67c.38-.46,1.14.14,3,0,1.55-.1,2.16-.57,2.56-.19.58.56-.42,1.82.18,2.56a2.24,2.24,0,0,0,3-.22c.46-.83-.81-1.9-.31-2.67.24-.37.66-.29,2.41-.52,2.18-.29,2.6-.57,3-.22s.19.87.42,2.54c.28,2,.89,2.81.47,3.24s-1.62-.39-2.33.17a2.22,2.22,0,0,0,.22,3c.84.5,2-.68,2.56-.19s-.15,1.2,0,3c.09,1.26.46,1.68.15,2.1s-.87.2-2.31.4c-1.81.24-2.4.78-2.77.43-.59-.54.64-2.08,0-2.81a2.05,2.05,0,0,0-2.78.44c-.43.91,1.11,2.07.67,2.75-.33.52-1.3,0-3.25.24s-2.55.86-3,.45,0-1,0-2.81-1.07-2.49-.68-3c.52-.68,2.29.52,3.07-.23a2.26,2.26,0,0,0-.57-3c-1-.48-2.25,1-2.94.5-.47-.34.2-1.17-.2-2.79C178.11,190.75,177.59,190.09,177.94,189.67Z"/><path class="cls-1" d="M201.26,182.23c-.47-.34.14-1.06,0-2.82-.1-1.44-.58-2-.19-2.37.56-.55,1.86.36,2.61-.22a1.92,1.92,0,0,0-.23-2.8c-.85-.42-1.94.78-2.72.33-.39-.22-.3-.61-.55-2.23-.3-2-.58-2.41-.23-2.81s.9-.19,2.6-.43c2.09-.29,2.87-.87,3.31-.49s-.39,1.52.18,2.16a2.44,2.44,0,0,0,3.09-.25c.51-.79-.7-1.83-.19-2.38s1.22.12,3.11,0c1.28-.11,1.71-.47,2.14-.18s.21.8.41,2.14c.25,1.68.8,2.22.45,2.57-.55.55-2.13-.57-2.87,0a1.78,1.78,0,0,0,.45,2.57c.94.39,2.12-1.05,2.82-.66.53.29,0,1.21.25,3s.89,2.35.46,2.78-1.06,0-2.87,0c-1.25,0-2.65,0-3.05.68-.54.87,1.23,2,.72,3a2.63,2.63,0,0,1-3.31.49c-.78-.77.52-2.38-.25-3-.42-.34-1.23-.15-2.85.24C202.36,182.05,201.69,182.55,201.26,182.23Z"/><path class="cls-1" d="M212.54,194.89c.34-.41,1,.12,2.71,0,1.38-.09,1.92-.51,2.27-.17.52.5-.37,1.62.17,2.28a2,2,0,0,0,2.69-.19c.41-.74-.72-1.7-.28-2.38.22-.33.59-.26,2.15-.46,1.94-.26,2.32-.51,2.69-.2s.17.78.37,2.26c.26,1.82.8,2.5.42,2.88s-1.44-.34-2.07.15a2,2,0,0,0,.2,2.69c.74.45,1.76-.6,2.27-.16s-.13,1.06,0,2.7c.08,1.12.42,1.49.13,1.87s-.77.18-2.05.35c-1.61.22-2.14.7-2.47.39-.52-.49.58-1.85,0-2.5a1.82,1.82,0,0,0-2.47.39c-.39.81,1,1.84.6,2.45-.3.46-1.16,0-2.9.21s-2.27.77-2.68.4,0-.92,0-2.5c0-1.09,0-2.31-.61-2.66-.82-.47-1.95,1.07-2.86.63a2.14,2.14,0,0,1-.42-2.89c.75-.67,2.28.47,2.9-.2.33-.37.16-1.08-.18-2.49C212.7,195.84,212.24,195.26,212.54,194.89Z"/><path class="cls-1" d="M222.26,177.52c.32-.38,1,.11,2.52,0,1.29-.08,1.79-.47,2.12-.15s-.35,1.51.15,2.12a1.85,1.85,0,0,0,2.51-.18c.38-.69-.67-1.58-.26-2.21.2-.31.55-.24,2-.44,1.8-.24,2.16-.46,2.51-.18s.15.73.34,2.11c.24,1.69.74,2.32.39,2.68s-1.34-.32-1.93.14a1.84,1.84,0,0,0,.18,2.5c.7.42,1.64-.56,2.12-.15s-.12,1,0,2.52c.08,1,.39,1.38.13,1.73s-.72.17-1.92.33c-1.5.2-2,.65-2.29.36-.48-.45.53-1.72,0-2.32a1.68,1.68,0,0,0-2.29.36c-.37.75.91,1.71.55,2.28s-1.08,0-2.7.19-2.11.72-2.49.38,0-.86,0-2.33-.89-2.06-.57-2.47c.43-.56,1.9.43,2.55-.19a1.89,1.89,0,0,0-.47-2.52c-.84-.41-1.87.82-2.44.41-.39-.28.17-1-.17-2.31C222.41,178.41,222,177.87,222.26,177.52Z"/><path class="cls-4" d="M194.86,100.6c.82-1.12,2.53.32,6.72,0,3.42-.24,4.74-1.39,5.64-.46,1.31,1.35-.86,4.44.51,6.23s5.68,1.45,6.67-.55-1.85-4.63-.79-6.49c.52-.91,1.46-.71,5.32-1.29,4.79-.72,5.72-1.39,6.67-.54s.45,2.12,1,6.18c.71,5,2.08,6.82,1.16,7.88-1.11,1.27-3.59-.94-5.13.42s-1.27,6.14.61,7.35,4.34-1.66,5.64-.46c1,.94-.28,2.91.09,7.4.26,3.05,1.1,4.07.42,5.09s-1.9.51-5.09,1c-4,.6-5.27,1.91-6.11,1.07-1.31-1.31,1.35-5.06,0-6.83-1.25-1.58-5.27-.93-6.11,1.07-.93,2.23,2.52,5,1.58,6.71-.7,1.26-2.88,0-7.18.59-4.05.54-5.6,2.12-6.62,1.11s0-2.53-.05-6.83c0-3-.09-6.31-1.63-7.27-2.06-1.28-4.79,2.94-7.09,1.72-2.08-1.11-2.83-6.18-1.16-7.88,1.83-1.86,5.67,1.25,7.18-.59.82-1,.37-2.93-.55-6.79C195.28,103.21,194.11,101.62,194.86,100.6Z"/><path class="cls-4" d="M167,94.85c.52-.64,1.58.18,4.2,0,2.14-.13,3-.78,3.53-.25.8.77-.58,2.51.26,3.53s3.53.84,4.17-.3-1.11-2.63-.43-3.68c.34-.52.92-.4,3.34-.73,3-.4,3.59-.78,4.17-.3s.26,1.21.58,3.51c.39,2.82,1.23,3.88.65,4.47s-2.24-.53-3.21.23-.86,3.49.3,4.18,2.73-.94,3.53-.26c.63.54-.21,1.66,0,4.2.13,1.73.65,2.31.21,2.89s-1.2.29-3.19.55c-2.5.34-3.32,1.08-3.83.6-.8-.75.9-2.87,0-3.87s-3.28-.54-3.83.6,1.53,2.86.92,3.8c-.45.72-1.79,0-4.49.33-2.54.3-3.52,1.19-4.15.62s0-1.43,0-3.87-1.47-3.45-.94-4.13c.71-.93,3.17.72,4.25-.31s.48-3.59-.79-4.21-3.11,1.38-4.06.69c-.66-.48.27-1.62-.28-3.86C167.19,96.33,166.47,95.43,167,94.85Z"/><path class="cls-4" d="M216.77,95c-.94-.7.28-2.15,0-5.71-.21-2.91-1.18-4-.39-4.8,1.14-1.11,3.77.73,5.29-.43s1.23-4.83-.47-5.67-3.93,1.57-5.51.67c-.78-.44-.61-1.24-1.1-4.52-.61-4.07-1.18-4.86-.46-5.67s1.8-.38,5.25-.87c4.23-.6,5.8-1.76,6.7-1,1.08,1-.8,3.06.35,4.37s5.22,1.08,6.26-.52-1.42-3.69-.4-4.79c.8-.87,2.48.24,6.29-.08,2.59-.22,3.46-.94,4.33-.36s.43,1.62.83,4.33c.51,3.39,1.63,4.48.91,5.19-1.12,1.11-4.3-1.15-5.8,0-1.35,1.06-.8,4.48.91,5.19,1.89.79,4.28-2.14,5.7-1.35,1.07.6,0,2.45.5,6.11.46,3.44,1.8,4.76.94,5.63s-2.15,0-5.8,0c-2.54,0-5.37.08-6.18,1.39-1.09,1.75,2.49,4.07,1.46,6-.94,1.77-5.25,2.4-6.7,1s1.06-4.82-.5-6.1c-.84-.69-2.49-.31-5.77.47C219,94.65,217.65,95.64,216.77,95Z"/><path class="cls-4" d="M249.12,121.79c-.72-.52-.29-1.52,0-6.43.26-4.18.08-5-.47-5.37-1.24-.81-3,1.51-4.69.78-2-.89-2.5-5.8-.78-7,1.44-1,3.84,1,4.68,0,.26-.29.29-.76-1.19-5-.94-2.7-1.46-4.36-.79-6a1.33,1.33,0,0,1,.27-.41c.86-1,2-.43,5.92-1s6.56.25,7.54-1.12c1.22-1.69-1.28-4.08,0-6s5-2.22,6.24-.78c1.4,1.64-1.34,4.83,0,6.25.85.89,3.21.41,7.88-.59,3-.64,4-1,4.88-.4s.49,1.82,1,4.87c.73,4.93.56,5.49,1,5.85,1.69,1.29,4.61-1.63,6.36-.36,1.42,1,1.42,4.4,0,5.46-1.61,1.21-4.25-1.12-5.47,0-.39.37-.65,1.11.58,6.16,1.1,4.53,1.77,5.64,1.07,6.35-.88.88-2.43,0-6.55,0-2.85,0-6,.08-7,1.56-1.23,2,2.81,4.59,1.65,6.79-1.06,2-5.93,2.71-7.55,1.11-1.78-1.75,1.19-5.43-.56-6.88-.95-.78-2.82-.35-6.51.54C251.62,121.39,250.1,122.51,249.12,121.79Z"/><path class="cls-1" d="M97.11,250.27c-.39-.29-.15-.84,0-3.56.15-2.31,0-2.77-.26-3-.68-.45-1.69.84-2.59.44-1.1-.5-1.38-3.21-.43-3.89.79-.56,2.12.53,2.59,0,.14-.16.16-.42-.66-2.77-.52-1.49-.81-2.4-.44-3.3a.75.75,0,0,1,.15-.23c.48-.54,1.12-.24,3.27-.54s3.63.14,4.17-.62c.68-.93-.71-2.25,0-3.33s2.78-1.23,3.46-.43-.75,2.67,0,3.45c.47.49,1.77.23,4.35-.33,1.66-.35,2.21-.54,2.7-.22s.27,1,.52,2.7c.41,2.72.31,3,.57,3.23.93.72,2.55-.9,3.51-.2a2.23,2.23,0,0,1,0,3c-.89.67-2.35-.62-3,0-.22.21-.36.62.32,3.41.61,2.5,1,3.11.59,3.5s-1.34,0-3.62,0c-1.58,0-3.34,0-3.85.86-.68,1.09,1.56,2.54.91,3.75s-3.27,1.5-4.17.62.66-3-.31-3.8c-.52-.44-1.56-.2-3.6.29C98.5,250,97.66,250.67,97.11,250.27Z"/><path class="cls-4" d="M248.33,50.07c.65-1,1.94-.28,5-1.28,2.5-.83,3.29-1.85,4.11-1.4,1.18.66.08,3.16,1.39,4.11s4.45-.11,4.86-1.65-2.13-2.77-1.65-4.23c.24-.72,1-.76,3.73-1.9,3.43-1.4,4-2,4.85-1.65s.68,1.35,1.77,4c1.34,3.23,2.66,4.22,2.15,5.1-.61,1.08-2.81.06-3.73,1.27s.06,4.4,1.65,4.86,2.95-2,4.11-1.4c.91.44.26,2,1.28,5,.68,2,1.48,2.54,1.14,3.36s-1.33.71-3.61,1.64c-2.86,1.17-3.6,2.31-4.35,1.9-1.19-.64.17-3.68-1.15-4.61s-4.06.38-4.36,1.9c-.32,1.69,2.69,2.92,2.27,4.23-.31,1-2.13.56-5.22,1.78s-3.46,2.28-4.73,2S256,71.72,254.19,67c-3.1-8-2.34-7.53-4-11.08C248.75,52.65,247.6,51.12,248.33,50.07Z"/><path class="cls-4" d="M280.17,55.71c.95-1.3,2.95.38,7.83,0,4-.29,5.53-1.62,6.58-.54,1.52,1.58-1,5.17.59,7.26s6.62,1.7,7.78-.64-2.16-5.39-.93-7.56c.61-1.06,1.7-.83,6.2-1.5,5.59-.84,6.67-1.62,7.78-.64s.52,2.47,1.19,7.2c.82,5.8,2.42,8,1.35,9.19-1.29,1.49-4.19-1.09-6,.49s-1.48,7.16.71,8.57,5.06-1.94,6.57-.54c1.19,1.1-.33,3.4.11,8.62.3,3.56,1.28,4.75.49,5.94s-2.22.59-5.93,1.15c-4.65.69-6.15,2.22-7.12,1.24-1.53-1.53,1.57-5.9-.05-8-1.46-1.84-6.15-1.09-7.12,1.25-1.09,2.6,2.93,5.87,1.84,7.82-.82,1.47-3.35,0-8.37.68-4.72.64-6.53,2.47-7.72,1.3s0-3-.05-8c-.05-3.48-.11-7.36-1.9-8.48-2.4-1.49-5.59,3.43-8.26,2-2.44-1.29-3.3-7.21-1.36-9.18,2.13-2.17,6.61,1.45,8.37-.69,1-1.15.43-3.42-.65-7.91C280.66,58.76,279.3,56.91,280.17,55.71Z"/><path class="cls-4" d="M179.13,60.5c.8-1,2.41.29,6.43,0,3.28-.21,4.56-1.2,5.4-.39,1.23,1.17-.89,3.85.4,5.41s5.41,1.27,6.39-.47-1.7-4-.66-5.63c.52-.79,1.41-.62,5.11-1.11,4.6-.62,5.5-1.2,6.39-.46s.4,1.84.88,5.37c.6,4.32,1.88,5.93,1,6.84-1.08,1.11-3.42-.81-4.91.36s-1.32,5.33.46,6.39,4.18-1.43,5.41-.39c1,.82-.32,2.53,0,6.42.19,2.66,1,3.54.32,4.43s-1.83.44-4.88.85c-3.83.51-5.08,1.65-5.87.91-1.23-1.14,1.37-4.4.07-5.93-1.17-1.38-5-.83-5.87.92-.92,1.93,2.33,4.38,1.41,5.83-.69,1.09-2.75,0-6.88.49-3.88.47-5.39,1.83-6.35,1s0-2.2.06-5.94-2.25-5.27-1.44-6.32c1.1-1.42,4.85,1.11,6.5-.47,1.47-1.39.75-5.49-1.21-6.44-2.12-1-4.75,2.11-6.21,1-1-.73.42-2.48-.43-5.9C179.49,62.77,178.4,61.39,179.13,60.5Z"/><path class="cls-4" d="M228.74,56.38c-.45-.32.12-1,0-2.68-.1-1.36-.55-1.89-.18-2.25.54-.52,1.77.35,2.48-.2a1.82,1.82,0,0,0-.22-2.66c-.8-.39-1.84.74-2.58.32-.37-.21-.29-.58-.52-2.12-.29-1.91-.55-2.28-.22-2.66s.85-.18,2.47-.41c2-.28,2.72-.83,3.14-.46s-.37,1.43.17,2a2.31,2.31,0,0,0,2.93-.24c.48-.75-.66-1.73-.19-2.25s1.16.12,2.95,0c1.22-.1,1.62-.44,2-.17s.2.76.39,2c.24,1.59.77,2.1.43,2.43-.52.53-2-.53-2.72,0a1.69,1.69,0,0,0,.42,2.44c.89.37,2-1,2.68-.63.5.28,0,1.14.23,2.86s.85,2.23.45,2.64-1,0-2.73,0c-1.19,0-2.51,0-2.9.65-.51.82,1.17,1.91.69,2.82a2.49,2.49,0,0,1-3.14.46c-.74-.72.5-2.26-.23-2.86-.4-.32-1.17-.15-2.71.22C229.78,56.21,229.14,56.68,228.74,56.38Z"/><path class="cls-4" d="M204.18,52.74c-.44-.32-.18-1,0-4,.17-2.62.05-3.14-.3-3.37-.77-.51-1.91,1-2.94.49-1.25-.56-1.57-3.64-.49-4.41.9-.64,2.41.59,2.94,0,.17-.19.18-.48-.75-3.15-.59-1.69-.92-2.73-.49-3.75a.8.8,0,0,1,.16-.26c.55-.61,1.28-.27,3.72-.62s4.12.16,4.74-.7c.77-1.06-.8-2.56,0-3.78s3.16-1.4,3.92-.49-.84,3,0,3.92c.54.56,2,.26,4.95-.37,1.88-.4,2.51-.63,3.07-.25s.31,1.14.59,3.06c.46,3.1.35,3.45.65,3.67,1.06.81,2.89-1,4-.23a2.55,2.55,0,0,1,0,3.44c-1,.76-2.67-.71-3.44,0-.24.23-.4.69.37,3.86.69,2.85,1.11,3.54.67,4s-1.53,0-4.11,0c-1.8,0-3.8,0-4.38,1-.77,1.24,1.77,2.88,1,4.26s-3.72,1.7-4.74.7.75-3.41-.36-4.32c-.59-.49-1.76-.22-4.08.34C205.76,52.49,204.8,53.2,204.18,52.74Z"/><path class="cls-4" d="M302,39c-.23.93-1.44.79-3.5,2.48-1.7,1.39-2,2.42-2.79,2.31-1.12-.16-1-2.43-2.31-2.78s-3.43,1.41-3.29,2.74,2.49,1.52,2.55,2.8c0,.63-.53.88-2.35,2.59C288.06,51.29,287.8,52,287,51.9s-.94-.85-2.57-2.57c-2-2.12-3.33-2.49-3.2-3.33.16-1,2.18-.89,2.53-2.11s-1.35-3.4-2.73-3.29-1.71,2.41-2.78,2.32c-.84-.07-.81-1.5-2.48-3.5-1.14-1.37-1.91-1.54-1.9-2.28s.83-1,2.32-2.35c1.88-1.77,2.12-2.87,2.83-2.78,1.11.14,1,2.92,2.27,3.25s3.05-1.51,2.83-2.78-3-1.47-3-2.62c-.05-.86,1.49-1.07,3.54-2.94s2-2.81,3.08-3,1.79.53,4.66,3.7c4.79,5.29,4.06,5.16,6.39,7.45C300.89,37.14,302.25,38,302,39Z"/><path class="cls-4" d="M238.24,16.74c.58-.8,1.81.23,4.8,0,2.45-.17,3.4-1,4-.33.94,1-.61,3.18.37,4.46s4.06,1,4.77-.39-1.32-3.32-.56-4.65c.37-.65,1-.5,3.8-.92,3.43-.51,4.1-1,4.77-.39s.33,1.52.74,4.42c.5,3.56,1.48,4.89.83,5.64-.8.92-2.58-.67-3.67.3s-.92,4.4.43,5.27,3.11-1.19,4-.34c.73.68-.21,2.09.06,5.3.18,2.18.79,2.91.3,3.64s-1.36.37-3.64.71c-2.86.43-3.77,1.37-4.37.77-.94-1,1-3.63,0-4.89s-3.78-.68-4.37.76c-.67,1.6,1.8,3.61,1.13,4.8-.51.91-2.06,0-5.14.42-2.9.39-4,1.52-4.74.8s0-1.81,0-4.89c0-2.13-.07-4.52-1.17-5.2-1.48-.92-3.43,2.1-5.07,1.23s-2-4.43-.84-5.64,4.06.89,5.14-.42c.59-.71.27-2.1-.39-4.86C238.54,18.61,237.7,17.47,238.24,16.74Z"/><path class="cls-4" d="M292.76,102.08c.25-.35.79.1,2.1,0,1.07-.08,1.48-.43,1.76-.14s-.27,1.38.16,1.94a1.42,1.42,0,0,0,2.08-.17c.31-.63-.58-1.44-.24-2,.16-.29.45-.23,1.66-.41,1.5-.22,1.79-.43,2.08-.17s.14.66.32,1.93c.22,1.56.65,2.14.37,2.46s-1.13-.29-1.61.14a1.8,1.8,0,0,0,.19,2.29c.59.38,1.36-.51,1.76-.14s-.08.91,0,2.31c.08,1,.35,1.27.13,1.59s-.59.16-1.59.31c-1.24.19-1.64.6-1.9.34-.41-.42.42-1.59,0-2.14a1.33,1.33,0,0,0-1.91.34c-.29.69.79,1.57.5,2.09s-.9,0-2.25.18-1.75.67-2.07.35,0-.79,0-2.13c0-.93,0-2-.51-2.27-.64-.41-1.5.91-2.22.53a2,2,0,0,1-.36-2.46c.57-.58,1.77.39,2.25-.18.25-.31.11-.92-.18-2.12C292.89,102.89,292.52,102.4,292.76,102.08Z"/><path class="cls-4" d="M320.9,97.35c.34-.46,1.05.14,2.77,0,1.42-.1,2-.57,2.33-.19.54.56-.35,1.83.21,2.57a1.89,1.89,0,0,0,2.75-.23c.41-.83-.76-1.91-.32-2.67.21-.38.6-.3,2.19-.54,2-.29,2.36-.57,2.75-.22s.19.87.43,2.55c.29,2.05.85,2.82.48,3.25s-1.49-.39-2.12.17a2.39,2.39,0,0,0,.25,3c.77.5,1.79-.69,2.33-.19s-.12,1.2,0,3c.11,1.26.46,1.68.18,2.1s-.79.21-2.1.4c-1.65.25-2.18.79-2.52.45-.54-.55.55-2.09,0-2.82a1.74,1.74,0,0,0-2.52.44c-.38.92,1,2.08.65,2.77-.29.52-1.19,0-3,.24s-2.31.87-2.73.46,0-1,0-2.82c0-1.23,0-2.6-.67-3-.85-.53-2,1.21-2.93.71a2.59,2.59,0,0,1-.48-3.25c.76-.77,2.34.51,3-.24.34-.41.16-1.21-.22-2.8C321.08,98.43,320.59,97.78,320.9,97.35Z"/><path class="cls-4" d="M183.68,54.36c-.44-.32.13-1,0-2.67-.1-1.37-.56-1.89-.19-2.25.54-.52,1.77.34,2.48-.21a1.82,1.82,0,0,0-.21-2.65c-.81-.4-1.85.73-2.59.31-.36-.21-.28-.58-.51-2.12-.29-1.91-.56-2.28-.22-2.66s.84-.18,2.46-.4c2-.29,2.72-.83,3.14-.47s-.37,1.44.17,2a2.32,2.32,0,0,0,2.93-.24c.48-.75-.66-1.74-.18-2.25s1.16.11,2.95,0c1.21-.1,1.62-.44,2-.17s.2.76.39,2c.24,1.59.76,2.1.43,2.44-.53.52-2-.54-2.73,0a1.69,1.69,0,0,0,.43,2.44c.89.37,2-1,2.67-.63s0,1.15.24,2.86.84,2.23.44,2.64-1,0-2.72,0c-1.19,0-2.52,0-2.9.65-.51.82,1.17,1.91.68,2.82a2.5,2.5,0,0,1-3.14.47c-.74-.73.5-2.26-.23-2.87-.39-.32-1.17-.14-2.71.23C184.72,54.2,184.09,54.66,183.68,54.36Z"/></g></g></svg>